<svg width="30" height="31" viewBox="0 0 30 31" fill="none" xmlns="http://www.w3.org/2000/svg">
<path d="M0 0V13.1406H28.9094V0H0ZM15.7688 7.88439H3.94219V5.25626H15.7688V7.88439ZM19.711 7.88439C19.4511 7.88439 19.197 7.80732 18.9809 7.66293C18.7648 7.51854 18.5964 7.31331 18.4969 7.0732C18.3975 6.83308 18.3715 6.56887 18.4222 6.31396C18.4729 6.05906 18.598 5.82492 18.7818 5.64114C18.9656 5.45737 19.1997 5.33221 19.4546 5.28151C19.7095 5.23081 19.9737 5.25683 20.2138 5.35629C20.454 5.45575 20.6592 5.62417 20.8036 5.84027C20.948 6.05637 21.025 6.31043 21.025 6.57032C21.025 6.91884 20.8866 7.25307 20.6402 7.49951C20.3937 7.74594 20.0595 7.88439 19.711 7.88439ZM23.6532 7.88439C23.3933 7.88439 23.1392 7.80732 22.9231 7.66293C22.707 7.51854 22.5386 7.31331 22.4391 7.0732C22.3397 6.83308 22.3137 6.56887 22.3644 6.31396C22.4151 6.05906 22.5402 5.82492 22.724 5.64114C22.9078 5.45737 23.1419 5.33221 23.3968 5.28151C23.6517 5.23081 23.9159 5.25683 24.156 5.35629C24.3962 5.45575 24.6014 5.62417 24.7458 5.84027C24.8902 6.05637 24.9672 6.31043 24.9672 6.57032C24.9672 6.91884 24.8288 7.25307 24.5824 7.49951C24.3359 7.74594 24.0017 7.88439 23.6532 7.88439Z" fill="black"/>
<path d="M28.502 22.8252L30 21.5112L28.686 19.2378L26.7806 19.8817C26.3587 19.5261 25.8786 19.2461 25.3614 19.0539L24.9672 17.0828H22.339L21.9448 19.0407C21.4276 19.2329 20.9475 19.513 20.5256 19.8686L18.6202 19.2247L17.3062 21.498L18.8042 22.8121C18.6991 23.359 18.6991 23.9209 18.8042 24.4678L17.3062 25.7819L18.6202 28.0552L20.5256 27.4113C20.9475 27.7669 21.4276 28.047 21.9448 28.2392L22.339 30.2234H24.9672L25.3614 28.2655C25.8786 28.0733 26.3587 27.7932 26.7806 27.4376L28.686 28.0815L30 25.8082L28.502 24.4941C28.6071 23.9428 28.6071 23.3765 28.502 22.8252ZM23.6531 26.2812C23.1333 26.2812 22.6252 26.1271 22.193 25.8383C21.7608 25.5495 21.4239 25.1391 21.225 24.6588C21.0261 24.1786 20.974 23.6502 21.0755 23.1404C21.1769 22.6306 21.4272 22.1623 21.7947 21.7947C22.1623 21.4272 22.6306 21.1769 23.1404 21.0755C23.6502 20.9741 24.1786 21.0261 24.6588 21.225C25.1391 21.4239 25.5495 21.7608 25.8383 22.193C26.1271 22.6252 26.2812 23.1333 26.2812 23.6531C26.2792 24.3495 26.0016 25.0168 25.5092 25.5092C25.0168 26.0016 24.3495 26.2792 23.6531 26.2812Z" fill="black"/>
<path d="M14.4547 23.6532H3.94219V21.0251H14.8407C15.501 18.8237 16.9608 16.9488 18.933 15.7688H0V28.9094H16.1104C15.0314 27.3692 14.4532 25.5338 14.4547 23.6532Z" fill="black"/>
</svg>
